<svg width="324" height="49" viewBox="0 0 324 49" fill="none" xmlns="http://www.w3.org/2000/svg">
<path d="M34.2839 48.1339C30.4005 48.1339 28.3025 47.509 27.99 46.2591L25.7805 37.6217H15.1344L13.1926 45.9243C12.9248 47.3081 10.7822 48 6.76481 48C4.62221 48 3.03757 47.8884 2.0109 47.6652C0.984234 47.3974 0.470901 47.1965 0.470901 47.0626L12.3222 1.73304C12.3222 1.37594 15.3799 1.19739 21.4952 1.19739C27.6106 1.19739 30.6683 1.37594 30.6683 1.73304L42.2518 47.1296C42.2518 47.442 41.2251 47.6875 39.1718 47.8661C37.1184 48.0446 35.4892 48.1339 34.2839 48.1339ZM16.8083 29.1183H23.8387L20.8257 15.2583H20.4239L16.8083 29.1183ZM61.0179 47.933C61.0179 48.2455 58.9869 48.4017 54.9249 48.4017C50.8628 48.3125 48.8318 48.1339 48.8318 47.8661V25.6365H47.024C46.3098 25.6365 45.7295 25.2125 45.2831 24.3643C44.8814 23.4716 44.6805 22.378 44.6805 21.0835C44.6805 16.2626 46.1089 13.8522 48.9657 13.8522C50.9744 13.8522 52.6483 14.4771 53.9875 15.727C55.3266 16.9322 55.9962 18.3159 55.9962 19.8783C56.9336 18.0481 58.1834 16.5974 59.7457 15.5261C61.3527 14.4101 62.982 13.8522 64.6336 13.8522C67.2225 13.8522 68.7849 14.5217 69.3205 15.8609C69.4544 16.218 69.5214 16.7536 69.5214 17.4678C69.5214 18.1374 69.2982 19.3649 68.8518 21.1504C68.4501 22.9359 68.026 24.2304 67.5796 25.0339C67.1333 25.8374 66.8654 26.2391 66.7762 26.2391C66.6869 26.2391 66.2628 26.0829 65.504 25.7704C64.7898 25.4133 64.1425 25.2348 63.5623 25.2348C61.866 25.2348 61.0179 26.5739 61.0179 29.2522V47.933ZM83.8825 31.3948C83.8825 35.7693 85.5341 37.9565 88.8373 37.9565C90.9799 37.9565 92.7654 37.5325 94.1938 36.6843C94.8634 36.6843 95.399 37.8449 95.8008 40.1661C96.2471 42.4426 96.4703 44.0049 96.4703 44.853C96.4703 45.6565 96.3587 46.1922 96.1356 46.46C93.7698 47.933 90.5335 48.6696 86.4269 48.6696C82.3202 48.6696 78.8161 47.1519 75.9147 44.1165C73.0579 41.0365 71.6295 36.8629 71.6295 31.5957C71.6295 26.2838 73.0356 21.9986 75.8477 18.74C78.7045 15.4814 82.4764 13.8522 87.1634 13.8522C91.895 13.8522 95.1758 14.9904 97.006 17.267C97.4077 17.758 97.6086 18.4945 97.6086 19.4765C97.6086 20.4139 97.43 21.5745 97.0729 22.9583C96.2695 25.8151 95.2205 27.4667 93.926 27.913C93.7474 27.9577 93.4796 27.98 93.1225 27.98C92.81 27.98 92.4083 27.7122 91.9173 27.1765C90.1764 25.4357 88.7703 24.5652 87.699 24.5652C86.6724 24.5652 85.7796 25.1009 85.0208 26.1722C84.2619 27.2435 83.8825 28.9843 83.8825 31.3948ZM126.589 46.1922C123.777 47.8438 120.161 48.6696 115.742 48.6696C111.323 48.6696 107.596 47.1742 104.561 44.1835C101.525 41.1481 100.008 36.9745 100.008 31.6626C100.008 26.3061 101.458 21.9986 104.36 18.74C107.306 15.4814 111.011 13.8522 115.474 13.8522C119.938 13.8522 123.375 14.9904 125.786 17.267C128.241 19.5435 129.468 22.311 129.468 25.5696C129.468 32.8009 125.317 36.4165 117.014 36.4165H112.394C112.394 37.7557 112.752 38.693 113.466 39.2287C114.225 39.7197 115.318 39.9652 116.747 39.9652C119.871 39.9652 122.84 39.251 125.652 37.8226C125.697 37.778 125.897 38.0904 126.254 38.76C127.326 40.6794 127.861 42.3087 127.861 43.6478C127.861 44.9423 127.437 45.7904 126.589 46.1922ZM118.22 26.8417C118.22 24.967 117.305 24.0296 115.474 24.0296C114.626 24.0296 113.89 24.2974 113.265 24.833C112.685 25.3241 112.394 26.0606 112.394 27.0426V29.1183H116.01C117.483 29.1183 118.22 28.3594 118.22 26.8417ZM146.029 47.4643C146.029 47.8661 143.752 48.067 139.199 48.067C135.628 48.0223 133.843 47.8438 133.843 47.5313V1.93391C133.843 1.26435 136.007 0.929566 140.337 0.929566C144.132 1.06348 146.029 1.28667 146.029 1.59913V47.4643ZM154.965 44.0496C152.197 40.9696 150.813 36.7067 150.813 31.2609C150.813 25.8151 152.197 21.5522 154.965 18.4722C157.777 15.3922 161.549 13.8522 166.28 13.8522C171.012 13.8522 174.762 15.3922 177.529 18.4722C180.297 21.5522 181.68 25.8151 181.68 31.2609C181.68 36.7067 180.297 40.9696 177.529 44.0496C174.762 47.1296 171.012 48.6696 166.28 48.6696C161.549 48.6696 157.777 47.1296 154.965 44.0496ZM166.28 25.0339C163.781 25.0339 162.531 27.0872 162.531 31.1939C162.531 35.3006 163.781 37.3539 166.28 37.3539C168.825 37.3539 170.097 35.3006 170.097 31.1939C170.097 27.0872 168.825 25.0339 166.28 25.0339Z" fill="#9A8262"/>
<path d="M211.79 1.13043C212.549 1.13043 212.929 3.11681 212.929 7.08957C212.929 11.0177 212.549 12.9817 211.79 12.9817H199.537V20.6148H207.706C208.465 20.6148 208.844 22.3557 208.844 25.8374C208.844 29.2745 208.487 30.993 207.773 30.993H199.537V47.1296C199.537 47.7545 198.689 48.1562 196.993 48.3348C195.341 48.558 193.958 48.6696 192.842 48.6696L189.695 48.5357C187.507 48.2678 186.414 47.8214 186.414 47.1965V2.8713C186.414 2.1571 186.548 1.6884 186.816 1.46522C187.128 1.24203 187.574 1.13043 188.155 1.13043H211.79ZM219.86 23.6948C218.61 21.4629 217.985 19.6551 217.985 18.2713C217.985 16.8429 218.365 15.9278 219.124 15.5261C221.668 14.4101 225.15 13.8522 229.569 13.8522C234.033 13.8522 237.18 14.9012 239.01 16.9991C240.84 19.0525 241.755 22.1101 241.755 26.1722V36.7513H244.032C244.79 36.7513 245.371 37.1977 245.772 38.0904C246.219 38.9832 246.442 40.2107 246.442 41.773C246.442 43.3354 246.04 44.8754 245.237 46.393C244.478 47.9107 243.429 48.6696 242.09 48.6696C239.679 48.6696 237.738 48.0223 236.265 46.7278C235.595 46.1922 235.082 45.5449 234.725 44.7861C232.671 47.3751 229.48 48.6696 225.15 48.6696C221.891 48.6696 219.146 47.509 216.914 45.1878C214.682 42.8667 213.566 40.1214 213.566 36.9522C213.566 29.6762 217.918 26.0383 226.623 26.0383H230.305V25.3687C230.305 24.2081 230.105 23.4716 229.703 23.1591C229.346 22.802 228.475 22.6235 227.092 22.6235C225.395 22.6235 222.985 22.9806 219.86 23.6948ZM225.217 36.0148C225.217 36.9968 225.485 37.7557 226.02 38.2913C226.556 38.7823 227.225 39.0278 228.029 39.0278C228.877 39.0278 229.636 38.693 230.305 38.0235V32.8678H228.431C226.288 32.8678 225.217 33.9168 225.217 36.0148ZM264.895 47.933C264.895 48.2455 262.864 48.4017 258.802 48.4017C254.74 48.3125 252.709 48.1339 252.709 47.8661V25.6365H250.901C250.187 25.6365 249.607 25.2125 249.16 24.3643C248.759 23.4716 248.558 22.378 248.558 21.0835C248.558 16.2626 249.986 13.8522 252.843 13.8522C254.852 13.8522 256.526 14.4771 257.865 15.727C259.204 16.9322 259.874 18.3159 259.874 19.8783C260.811 18.0481 262.061 16.5974 263.623 15.5261C265.23 14.4101 266.859 13.8522 268.511 13.8522C271.1 13.8522 272.662 14.5217 273.198 15.8609C273.332 16.218 273.399 16.7536 273.399 17.4678C273.399 18.1374 273.176 19.3649 272.729 21.1504C272.327 22.9359 271.903 24.2304 271.457 25.0339C271.011 25.8374 270.743 26.2391 270.654 26.2391C270.564 26.2391 270.14 26.0829 269.381 25.7704C268.667 25.4133 268.02 25.2348 267.44 25.2348C265.743 25.2348 264.895 26.5739 264.895 29.2522V47.933ZM307.11 47.6652C307.11 47.9777 305.191 48.1339 301.352 48.1339C297.558 48.1339 295.661 47.933 295.661 47.5313V28.047C295.661 25.8151 294.924 24.6991 293.451 24.6991C292.692 24.6991 291.688 25.1901 290.438 26.1722V47.5983C290.438 48.0446 288.519 48.2678 284.68 48.2678C280.886 48.2678 278.989 48.0223 278.989 47.5313V25.6365H277.315C275.842 25.6365 275.105 24.0965 275.105 21.0165C275.105 19.6328 275.373 18.2267 275.909 16.7983C276.623 14.8342 277.783 13.8522 279.39 13.8522C280.997 13.8522 282.537 14.2762 284.01 15.1243C285.528 15.9725 286.443 16.7759 286.756 17.5348C289.523 15.0797 292.581 13.8522 295.929 13.8522C299.321 13.8522 302.044 14.9012 304.097 16.9991C306.508 14.9012 309.409 13.8522 312.802 13.8522C320.167 13.8522 323.849 18.3383 323.849 27.3104V47.6652C323.849 47.9777 321.93 48.1339 318.091 48.1339C314.297 48.1339 312.4 47.933 312.4 47.5313V28.047C312.4 25.8151 311.663 24.6991 310.19 24.6991C309.387 24.6991 308.36 25.1901 307.11 26.1722V47.6652Z" fill="#8B9A71"/>
</svg>
